<?xml version="1.0" encoding="UTF-8" standalone="no"?>
<svg
   xmlns:dc="http://purl.org/dc/elements/1.1/"
   xmlns:cc="http://creativecommons.org/ns#"
   xmlns:rdf="http://www.w3.org/1999/02/22-rdf-syntax-ns#"
   xmlns:svg="http://www.w3.org/2000/svg"
   xmlns="http://www.w3.org/2000/svg"
   xmlns:sodipodi="http://sodipodi.sourceforge.net/DTD/sodipodi-0.dtd"
   xmlns:inkscape="http://www.inkscape.org/namespaces/inkscape"
   width="75.166603mm"
   height="72.616158mm"
   viewBox="0 0 75.166601 72.616158"
   version="1.1"
   id="svg933"
   inkscape:version="1.0.2 (e86c870879, 2021-01-15)"
   sodipodi:docname="icon2.svg">
  <defs
     id="defs927" />
  <sodipodi:namedview
     id="base"
     pagecolor="#ffffff"
     bordercolor="#666666"
     borderopacity="1.0"
     inkscape:pageopacity="0.0"
     inkscape:pageshadow="2"
     inkscape:zoom="3.959798"
     inkscape:cx="205.15643"
     inkscape:cy="104.93224"
     inkscape:document-units="mm"
     inkscape:current-layer="layer1"
     inkscape:document-rotation="0"
     showgrid="false"
     inkscape:pagecheckerboard="true"
     fit-margin-top="0"
     fit-margin-left="0"
     fit-margin-right="0"
     fit-margin-bottom="0"
     inkscape:window-width="3840"
     inkscape:window-height="2075"
     inkscape:window-x="0"
     inkscape:window-y="46"
     inkscape:window-maximized="1" />
  <metadata
     id="metadata930">
    <rdf:RDF>
      <cc:Work
         rdf:about="">
        <dc:format>image/svg+xml</dc:format>
        <dc:type
           rdf:resource="http://purl.org/dc/dcmitype/StillImage" />
        <dc:title></dc:title>
      </cc:Work>
    </rdf:RDF>
  </metadata>
  <g
     inkscape:label="Layer 1"
     inkscape:groupmode="layer"
     id="layer1"
     transform="translate(-51.55236,-160.49377)">
    <g
       id="g1542">
      <path
         id="path582-1-6-9-1-5"
         style="fill:#eeeeee;fill-opacity:1;stroke-width:0.0820919"
         d="m 78.63361,160.74678 c -3.67415,-1.31365 -3.80419,2.75526 -4.60246,6.04917 -0.21634,0.89265 -2.17975,0.73468 -2.81963,1.1564 -3.73255,2.82406 -4.86523,6.94121 -6.64527,10.90417 -1.07281,4.30007 -2.43198,9.43424 -0.21099,13.54724 2.87569,3.64082 9.14795,4.71008 12.43255,4.197 4.83149,1.29459 2.43793,9.31258 -2.62507,6.60825 -5.37758,-1.15755 -11.04871,-0.84708 -16.15831,1.24159 -1.53152,0.0738 -7.83181,2.84687 -3.29119,1.46993 3.2726,-0.72808 6.48536,-2.43994 9.90303,-1.9975 -0.197,1.91408 4.33597,2.61804 3.65196,3.92751 -7.70409,1.51529 -12.75001,11.02828 -8.99036,18.13273 3.12895,6.61332 12.24027,9.26368 18.35702,5.16239 4.15904,-2.56589 6.82494,-7.80568 5.54689,-12.66176 0.66879,-4.16147 7.80963,-2.33874 9.47855,-6.74292 3.06044,-2.80414 5.55307,-6.65396 4.92082,-10.52656 -2.37379,-3.1591 -3.54582,-8.41201 -1.50645,-11.88764 4.67243,-2.33 5.33666,5.77687 4.30434,8.33033 -0.45509,3.80303 2.86916,6.62894 5.20888,9.19092 4.67973,4.76707 13.14365,4.60275 17.56036,-0.45187 5.00889,-4.84592 4.73062,-13.77946 -0.7252,-18.17776 -3.15376,-2.78798 -7.74896,-4.15549 -11.835,-2.83539 -4.04632,-2.18764 -8.35528,7.1674 -11.63763,0.90931 -3.63227,-2.69993 -7.0401,-5.60315 -10.3038,-8.50356 -3.03773,-1.23005 -10.44846,0.10374 -8.93289,-4.98578 1.09758,-2.69222 7.26568,-4.6843 6.03254,-8.24306 -1.45221,-1.88252 -4.71215,-4.20369 -7.11269,-3.81314 z m 5.01761,19.31936 c 4.79986,1.18677 7.67815,5.87104 5.48755,10.24936 -0.67679,3.88501 -4.59476,2.15879 -5.88145,-0.18293 -3.78769,-0.69922 -9.20832,-3.13389 -5.62021,-7.96704 2.43696,-2.08754 3.71935,-1.79604 6.01411,-2.09939 z m 29.82269,8.61493 c 6.66645,-0.73483 12.43592,7.27487 8.69007,13.1681 -2.38703,4.37024 -8.81644,6.90022 -13.01279,3.534 -2.83638,-1.79266 -5.11112,-5.61826 -3.96357,-8.98924 4.87873,-3.87304 4.94152,6.78259 9.56348,5.15421 5.07729,-0.66725 3.43566,-9.62278 -1.6346,-7.44265 -3.70682,1.93466 -8.24132,-3.53967 -2.9056,-4.80901 0.99901,-0.41689 2.19316,-0.46241 3.26301,-0.61541 z m -42.333,24.11838 c 0.007,4.10072 -7.2071,4.55866 -5.6928,8.97185 1.25215,3.44192 7.77605,5.63046 9.5348,1.88106 -1.45954,-3.45172 5.65703,-3.06498 2.58517,0.0682 -2.37554,5.70276 -9.88216,6.16175 -13.84031,-0.48322 -1.78154,-4.14161 1.20485,-9.80288 5.75795,-10.06249 0.56448,-0.028 1.1576,-0.0745 1.65519,-0.37538 z"
         sodipodi:nodetypes="cscccccccccccccccccccccccccccccccccccccccccccccc" />
      <g
         id="g934"
         transform="translate(-59.97401,-46.413427)">
        <path
           id="path3516-4"
           style="fill:#b8c85d;stroke-width:0.162767"
           d="m 137.97739,216.15294 c -3.51834,-0.80756 -6.06889,-6.44821 -2.4272,-8.63407 4.02648,-1.87378 9.02989,0.86172 10.68215,4.71265 -1.16654,-3.32041 -6.96061,-3.63295 -5.75179,0.84305 0.0994,1.42503 -0.4513,4.12803 -2.50316,3.07837 z m 1.05799,-0.62193 c -1.02062,-1.73847 -0.87312,1.68413 0,0 z m -1.79621,-2.71189 c -1.75839,-4.0716 -1.6292,2.34784 0,0 z m -1.94744,-2.90359 c -0.99031,-1.2566 -0.0845,1.04893 0,0 z m 8.33417,2.16441 c -1.09855,-1.374 2.26348,1.4916 0,0 z m -1.82347,-1.44157 c 0.44732,-0.38724 0.11223,0.71987 0,0 z" />
        <path
           id="path3514-5"
           style="fill:#9e9d9e;stroke-width:0.162767"
           d="m 130.40871,279.43466 c 0.41244,-0.99305 0.51864,0.44716 0,0 z m -2.0346,-0.27713 c -8.2855,-1.33578 -13.01127,-12.35871 -7.83104,-19.12927 1.79979,-3.36533 6.44991,-5.16953 9.07205,-6.16357 -2.2579,-0.25661 -4.79002,-2.13397 -4.21015,-3.70359 -4.74708,0.44288 -9.19891,2.31318 -13.8786,3.10945 4.64763,-1.91986 9.58732,-3.14345 14.49889,-4.10743 3.07529,-0.50732 -5.76792,1.37031 -1.11507,0.38304 3.891,-0.68779 -0.98325,2.08711 1.94117,3.03915 1.15462,0.5005 5.83562,1.31982 2.15969,1.99658 -7.87714,1.30639 -13.20566,11.30129 -8.78649,18.29261 1.01595,3.79988 8.3983,6.25578 8.96121,6.39586 l -0.81164,-0.11273 z m 3.5932,-0.005 c 6.71664,-0.34218 12.84084,-7.15015 11.09483,-13.9497 -0.84432,-4.86571 5.51394,-2.19966 7.64,-5.38319 1.69816,-3.24022 6.75581,-4.31439 5.4124,-9.17977 -0.29696,-4.26439 -2.40208,-8.31443 -2.49063,-12.52886 0.98665,1.40238 1.34656,5.24487 1.48842,1.36185 -0.36228,-1.39619 -1.60469,-3.22756 -0.14748,-2.89877 2.45388,-4.49529 8.96525,2.37504 5.79116,5.76784 -0.3636,1.62021 0.16296,3.9033 0.76943,3.52709 1.06743,7.3098 9.3137,12.64044 16.38176,10.10839 3.84123,-1.3077 7.22774,-4.49732 7.878,-8.62659 0.91946,-3.43909 -0.0868,3.07123 -1.3031,3.85289 -3.72025,5.8366 -12.52686,7.56496 -17.94106,3.06191 -2.48959,-2.49115 -5.83657,-5.1797 -6.16139,-8.91878 -0.0632,-3.08459 2.09935,-7.20693 -1.26436,-9.28653 -3.2079,-2.69984 -4.81049,1.86243 -3.81925,4.39679 -0.78236,3.15732 2.16315,6.6792 2.17195,8.84119 -1.96377,1.60121 -0.0262,5.05942 -2.80281,6.75737 -2.95733,3.01407 -5.85812,6.60507 -10.45327,6.53816 -2.39838,1.73393 0.5269,5.60741 -1.16969,8.18285 -1.22386,4.58761 -5.61774,8.11152 -10.31064,8.44251 z m 26.03109,-29.92997 c 0.62176,-2.78951 -3.97109,-1.75541 -1.207,0.0549 0.31006,0.24506 0.97069,0.39197 1.207,-0.0549 z m -27.51845,25.376 c -5.77669,-0.0677 -9.39642,-7.71852 -5.78471,-12.24659 2.48945,-3.55106 8.64167,-4.45443 10.99668,-0.8251 -1.10193,4.62515 -5.80777,-1.06505 -7.77467,2.20606 -4.06712,2.93301 0.2389,9.85401 4.66681,7.5947 1.90481,-0.79677 4.83107,-7.13335 6.14684,-3.34959 -0.42341,3.9553 -4.35061,6.93558 -8.25095,6.62052 z m 0.66429,-0.31414 c 3.36378,0.35739 8.51608,-3.60844 6.44163,-7.10843 -1.89707,0.24025 -2.52271,2.34996 -4.02882,3.83873 -1.73251,1.53007 -6.69132,1.93627 -7.82735,-3.28419 -1.83932,-4.06313 8.09541,-5.52114 4.23544,-8.14349 -5.26554,0.35222 -8.3876,7.16203 -5.18953,11.39434 1.37318,2.00601 3.93026,3.43078 6.36863,3.30304 z m -0.41,-13.75845 c 0.4752,-0.63264 0.10414,0.89888 0,0 z m 3.0112,2.69527 c 1.49743,0.72178 1.99546,-3.32176 0.69513,-1.03912 -0.99888,-2.44611 -3.65306,2.30139 -0.69513,1.03912 z m -1.38543,-2.03257 c 1.97286,-0.0404 1.73872,-1.39437 0.54764,-1.64616 -0.80333,-0.65731 -2.16524,3.08234 -0.54764,1.64616 z m -5.34329,6.98932 c -0.92483,-1.90446 1.48108,1.19026 0,0 z m 2.35832,-0.59992 c -0.16791,-1.64342 0.61482,1.02981 0,0 z m 5.94632,-0.87855 c -1.08309,-2.28698 4.12884,-2.29879 1.00968,-0.66579 0.004,0.69084 -1.27958,2.3338 -1.00968,0.66579 z m 0.62144,-0.39641 c 1.08886,-1.5463 -0.92187,-0.32964 0,0 z m 1.37021,-1.0647 c 1.43874,-1.81222 -1.76113,-0.2615 0,0 z m -9.50858,2.06161 c 0.1351,-0.99981 0.54823,0.65408 0,0 z m 2.11924,-0.58323 0.22841,-0.0531 z m 13.09951,-8.05304 c 0.57199,-0.96262 0.18191,0.65835 0,0 z m -4.2404,-1.53634 c -2.21429,-1.40298 2.15802,0.41316 0,0 z m 0.57814,-3.5e-4 c -0.0851,-0.70551 -0.51676,0.38784 0,0 z m 1.38353,-0.41652 c 0.35463,-0.78461 0.62722,1.05182 0,0 z m -3.05587,-1.7765 c -1.31529,-2.07459 1.69131,1.11006 0,0 z m 1.18404,-0.8632 c -2.69449,0.57311 -7.09784,-4.98555 -2.00477,-3.70235 2.87608,-1.2192 3.65655,2.60901 2.46124,3.9768 z m -1.30214,-1.75504 c -1.02203,-0.52631 0.54113,0.80036 0,0 z m 9.92881,1.62769 c 0.47826,-0.82262 0.65566,0.851 0,0 z m 23.60129,-0.22301 c -3.79584,-2.01122 -7.64569,-6.11875 -6.28754,-10.74255 2.59732,-4.37179 5.96343,2.71936 7.82169,4.49408 5.35238,2.53551 7.03455,-8.05634 0.9343,-6.27023 -3.1148,1.21723 -10.72433,-1.83557 -5.14574,-4.56803 4.44818,-3.00931 11.31816,-1.75773 13.77345,3.22638 2.23248,3.96619 1.20621,9.52555 -2.78822,11.96806 -2.33302,1.75025 -5.43362,2.66787 -8.30794,1.89229 z m 3.6757,-0.18264 c 5.53607,-0.83061 10.17453,-7.11427 7.72409,-12.56007 -2.11534,-5.87264 -10.94509,-7.82486 -15.14355,-3.077 0.0624,5.18707 6.31803,1.72354 8.94575,3.13884 4.43199,3.14059 -1.45581,10.00727 -5.04858,5.77482 -0.82311,-2.99454 -6.16507,-7.9714 -6.5393,-2.1491 -0.0815,4.02476 3.34721,6.97374 6.62462,8.66552 1.0819,0.44568 2.31046,0.54597 3.43697,0.20699 z m -38.52871,-0.042 c -0.31451,-0.77308 1.08543,1.46066 0,0 z m 18.75105,0.0552 c -1.13497,-1.65403 -0.23298,-3.52059 0.72095,-1.00048 0.24834,0.46231 -0.017,1.55363 -0.72095,1.00048 z m -0.98863,-0.75888 c 0.8669,-1.53188 0.25928,1.5884 0,0 z m -10.90542,-1.94127 c 0.38992,-0.71267 0.53566,0.77698 0,0 z m 7.55501,-0.31198 c -1.26943,-3.05461 3.79002,-3.65491 2.89578,-0.36864 -0.84341,0.59245 -1.93343,0.52273 -2.89578,0.36864 z m -6.25287,-0.17633 c 0.6607,-0.85438 0.55079,0.69868 0,0 z m -3.90642,-0.37595 c 0.16999,-1.21281 0.69401,0.57242 0,0 z m -8.5453,-0.37086 c -1.41689,-0.43661 3.28278,0.45599 0,0 z m 17.82305,-0.12131 c 0.44294,-1.52103 0.59162,1.27856 0,0 z m -20.38663,-0.22338 c 1.4072,-0.73364 0.60187,0.48579 0,0 z m 9.65682,-0.46838 c 0.23098,-0.55533 -0.0359,0.80621 0,0 z m 1.71632,-0.48104 c -0.77903,-1.28786 0.67523,0.48064 0,0 z m -1.47116,-1.05169 c 1.64659,-4.73209 -4.70702,-4.22272 -7.66429,-4.63539 -3.28878,-0.48068 -8.15766,-2.29286 -7.83186,-6.32367 0.5151,4.91231 6.16092,6.33088 10.29776,6.38493 3.13063,-0.16339 7.84007,1.54099 5.19839,4.57413 z m 4.38587,-1.0173 c -1.68167,-5.75344 6.34966,1.20155 0.51153,1.36641 -0.4124,-0.32067 -0.53032,-0.87417 -0.51153,-1.36641 z m 9.4397,0.0488 c -0.98227,-2.27146 1.63815,1.60466 0,0 z m -1.8354,-1.18815 c 0.67296,-1.16465 0.66918,0.92538 0,0 z m 2.58808,0.0488 c 0.67922,-1.3266 0.20558,0.74406 0,0 z m 19.6162,-0.11665 c -0.55418,-1.55743 1.68328,0.12552 0,0 z m -28.45865,-2.7135 c 0.14022,-1.4769 1.16784,0.94862 0,0 z m 5.48131,-0.43334 c -0.20329,-1.30341 0.84985,0.42896 0,0 z m 35.524,0.0699 c -0.71463,-4.51827 -5.45014,-8.53316 -9.86794,-8.75406 -3.61982,-1.7273 -7.74501,-0.66384 -11.0298,1.77508 -1.3232,2.04901 -4.00149,2.41602 -4.9073,-0.44013 -1.78384,1.65484 -3.71576,-3.68305 -6.33992,-3.22833 -2.03968,-1.57968 -4.15033,-6.12756 -4.92519,-6.85351 2.1591,0.0799 3.68869,6.59615 4.92001,3.70901 0.98423,0.13292 3.98218,5.17235 6.40477,6.22014 4.12317,3.26631 6.15863,-3.93724 10.07698,-2.84101 3.00998,0.47251 8.14552,-0.38292 11.04132,2.69756 2.42515,1.84395 4.47348,4.57439 4.62707,7.71525 z m -4.35403,-6.58058 c -0.22959,-0.80184 -0.32202,0.57599 0,0 z m -15.46291,-1.13937 c -0.47826,-0.82261 -0.65567,0.85101 0,0 z m 0.93934,-0.78343 c -0.52789,-0.5536 -0.27647,1.14284 0,0 z m 0.8511,-0.43732 c 2.09499,-0.84987 -1.35786,0.0179 0,0 z m -11.55649,-1.44521 c 0.0514,-2.04374 -5.42934,-2.57954 -1.89816,-0.78456 0.51883,0.31911 1.23097,1.51754 1.89816,0.78456 z m -10.01021,10.05664 c 1.94505,-0.94491 -2.50941,-1.95235 -0.0732,-1.94785 -0.83676,-1.07506 -4.92273,-3.86757 -1.73474,-1.8764 1.64999,3.67386 5.7877,0.76877 4.48214,-2.50931 -0.6732,-2.59515 3.94623,-2.38764 1.20684,-3.80608 -2.49352,-2.50541 -5.57144,-6.20164 -9.53916,-4.66231 -3.80032,-0.33576 -5.14503,6.77114 -4.80442,6.69471 -0.9158,-5.18615 5.24603,-8.64868 9.64096,-6.49241 3.32354,1.45614 6.98862,5.6757 4.34894,8.89329 1.25737,-1.50825 1.91055,-1.76565 1.95205,0.37103 -0.31983,2.02337 -4.58584,2.17241 -4.71326,5.03096 l -0.35816,0.20877 -0.40792,0.0956 z m 4.07679,-7.2426 c 0.73001,-2.59176 -1.7398,1.3086 0,0 z m -0.7943,6.74242 c -1.10461,-0.74364 1.05996,0.0319 0,0 z m -0.59433,-1.46888 c 0.14544,-2.24782 0.51278,0.71699 0,0 z m 2.92732,-0.0304 c 0.18979,-1.76309 0.95675,0.54671 0,0 z m -25.9943,-0.55004 c -2.61243,-1.40873 3.60741,-3.68785 0.45957,-1.73155 1.37317,-0.33231 6.8651,-2.4681 3.89575,0.38292 -1.3432,0.72193 -2.80939,1.31806 -4.35532,1.34863 z m 15.29544,-1.04761 c 1.13952,-0.79354 0.38111,0.51497 0,0 z m -0.88815,-0.16115 c 1.01476,-0.60068 -0.0491,0.4836 0,0 z m -7.08746,-1.14099 c 1.13949,-0.79354 0.38109,0.51497 0,0 z m 4.83924,-1.71336 c -1.2504,-0.69693 2.57025,0.8324 0,0 z m -14.41243,-1.41592 c -0.72274,-6.37873 2.67504,-12.1995 5.62234,-17.57527 0.57413,-2.09278 7.17736,-2.48481 3.35631,-1.22335 -3.7856,-0.96602 -3.72568,4.15325 -5.62995,6.25829 -2.27604,3.78312 -3.49163,8.112 -3.3487,12.54033 z m 45.98932,-0.0132 c 0.35816,-0.73057 0.35816,0.73056 0,0 z m 0.69095,-0.20346 c 0.56354,-1.0023 0.70669,0.6211 0,0 z m -16.64156,-0.36559 c -0.62071,-1.51248 1.45331,1.18692 0,0 z m -5.83453,-7.08102 c 0.12008,-0.91262 0.12008,0.91276 0,0 z m -13.83364,-0.62776 c -1.96322,-0.44431 -2.16351,-3.33185 -0.22619,-1.02935 1.55646,0.2157 3.96199,1.421 0.89607,1.14409 l -0.66988,-0.11469 z m 9.48872,0.10144 c -0.55915,-3.43514 2.8839,-0.76975 0,0 z m -2.73404,-0.72157 c -0.63328,-2.25753 2.10402,0.77951 0,0 z m 0.23722,-0.58596 c -0.62889,-0.24737 0.88586,0.9843 0,0 z m -2.13618,-0.038 c 0.39216,-0.97541 0.24657,0.86041 0,0 z m 6.48018,0.13297 c 1.0147,-0.6007 -0.0491,0.48362 0,0 z m 0.81384,-0.16277 c 1.01474,-0.60057 -0.0492,0.48366 0,0 z m -7.45678,-0.63087 c 0.47519,-0.63262 0.10414,0.89887 0,0 z m 3.13785,-0.43801 c -0.93785,-1.3232 1.14082,0.18843 0.52472,0.29438 z m -10.8693,-0.12205 c 0.31444,-0.78655 0.19958,0.5401 0,0 z m 7.3618,-0.015 c -0.2984,-1.36667 1.16479,0.97998 0,0 z m -1.17665,-0.14781 c 0.67348,-0.96049 0.28364,0.79265 0,0 z m 3.33674,-0.43403 c -1.71959,-0.53122 -0.17453,-0.96939 0.31962,-0.0927 z m -2.02737,-1.86518 c 1.48072,-2.57163 5.24764,-7.22526 6.50024,-7.35281 -2.7169,1.66186 -4.19372,5.03323 -6.18264,7.22489 0.29418,1.4647 -0.69154,0.5069 -0.3176,0.12792 z m -1.19814,-0.56015 c 0.28326,-1.97658 0.49439,1.57304 0,0 z m -1.02873,-0.30976 c -2.22369,0.52473 -0.9845,-1.89838 0,0 z m -5.67308,-0.65412 c -0.82295,-1.62102 3.27803,-3.10215 0.46889,-1.66761 -0.36179,0.39763 0.43077,1.83898 -0.46889,1.66761 z m 5.20706,-1.06939 c 0.44732,-0.38724 0.11223,0.71987 0,0 z m -1.91297,-0.35527 c 0.5453,-0.72947 0.36242,0.72194 0,0 z m 7.44707,-7.04156 c 0.35476,-0.98644 0.59892,0.94484 0,0 z m -0.3288,-0.98002 c -0.54458,-1.27352 0.89299,0.94521 0,0 z m -1.16663,-2.30462 c 1.01477,-0.60068 -0.0492,0.4836 0,0 z"
           sodipodi:nodetypes="cccccccccccccccccccccccccccccccccccccccccccccccccccccccccccccccccccccccccccccccccccccccccccccccccccccccccccccccccccccccccccccccccccccccccccccccccccccccccccccccccccccccccccccccccccccccccccccccccccccccccccccccccccccccccccccccccccscccsccccccccccccccccccccccccccccccccccccccccccccccc" />
        <path
           id="path3512-2"
           style="fill:#c76f8c;stroke-width:0.162767"
           d="m 138.26325,254.99232 c -1.06536,-1.15506 -4.5042,-3.2351 -1.00438,-1.91069 0.46415,-0.0193 2.21485,2.39714 1.00438,1.91069 z m -0.85554,-2.51309 c -0.53362,-0.81459 1.00569,0.52954 0,0 z m -3.48016,-2.02628 c -3.46141,-1.03881 -7.1265,-0.64639 -10.68739,-0.64294 3.23766,-0.84063 9.10006,-0.8573 10.68739,0.64294 z m 6.40997,-0.63816 c 0.12379,-1.85673 0.74858,0.49138 0,0 z m -1.09282,-0.83507 c 0.0779,-1.51237 0.12587,1.65202 0,0 z m 0.12907,-1.15293 c 0.23102,-0.55529 -0.0361,0.80627 0,0 z m 4.05628,-1.72515 c -1.32041,-2.79063 0.99659,1.42856 0.0303,0.0769 z m -3.73075,-0.39082 c 0.23098,-0.55534 -0.0359,0.80621 0,0 z m -5.42487,-2.77991 c 0.64283,-0.61178 0.3823,0.45738 0,0 z m 10.70317,-1.19566 c 1.66202,-1.06118 0.39104,0.8516 0,0 z m 1.45412,-0.72215 c 1.86126,-1.41848 -0.29334,0.62872 0,0 z m -0.8485,-0.48538 c -1.83842,-1.12355 0.97848,-2.1075 0.0843,-0.38672 1.72875,0.50654 0.85013,0.4889 -0.0843,0.38672 z m 2.07884,0.12772 c -0.14396,-1.46669 0.82338,-0.11825 0,0 z m -17.60941,-2.7737 c 1.01476,-0.60068 -0.0491,0.4836 0,0 z m 10.97664,-9.9e-4 c 0.99786,-0.68878 0.53531,0.46006 0,0 z m -15.14932,-0.32046 c 0.97504,-0.0758 2.90187,-1.89114 0.65806,-0.9555 0.71102,-2.74886 8.17391,0.59982 3.1846,-0.45365 -1.37683,0.0604 -2.47632,1.93909 -3.84266,1.40915 z m 4.6915,0.19994 c 0.43255,-0.95737 0.83707,0.19513 0,0 z m 9.56259,-0.0379 c 0.64283,-0.61179 0.3823,0.45737 0,0 z m -0.64089,-0.16616 c 1.01474,-0.60053 -0.0492,0.48363 0,0 z m -6.80572,-0.70265 c 1.33569,-1.18064 -0.0572,0.6063 0,0 z m 2.57376,0.0515 c 1.01473,-0.60057 -0.0492,0.48366 0,0 z m 6.06273,-0.62751 c -1.53328,-0.57255 -6.82887,-2.43752 -2.36684,-1.09101 0.36501,0.1265 4.91091,1.95296 2.36684,1.09101 z m -17.47293,-1.37664 c -0.17215,-1.21803 0.57811,-1.97514 0,0 z m 6.96461,-0.16341 c 0.24945,-0.70411 0.5409,0.77503 0,0 z m -6.12174,-1.18006 c -0.46016,-1.07992 1.46135,1.72254 0,0 z m 32.13294,-0.86318 c -0.71602,-0.88819 1.67558,1.15615 0,0 z m -5.42111,-3.66197 c -0.9943,-1.5803 1.81293,1.11157 0,0 z m -13.14037,-1.73212 c 1.13963,-0.79364 0.38114,0.51503 0,0 z m 9.83513,-1.47418 c 0.44151,-2.17602 -5.1289,-0.69534 -1.28187,-1.95762 0.79511,-0.16716 3.53666,2.18378 1.28187,1.95762 z m -13.16479,-0.31465 c 1.01476,-0.60066 -0.0492,0.48359 0,0 z m 0.9766,0 c 1.01476,-0.60068 -0.0491,0.4836 0,0 z m -2.49238,-0.21435 c 0.92636,-0.50236 1.06104,0.72296 0,0 z m 3.45881,0.0549 c 0.64283,-0.61178 0.3823,0.45738 0,0 z m 0.73246,-0.24354 c -4.98386,1.65438 -6.81399,-6.19979 -4.84761,-7.40055 -3.51337,1.78458 2.37477,-4.54087 3.20631,-0.5266 1.46141,1.73523 0.20928,5.47608 2.62787,5.73823 1.81043,0.009 -0.77468,2.04802 -1.88148,0.47704 -1.96182,-1.5471 -3.29813,2.18236 -0.24579,1.25532 l 0.66263,0.15228 z m -3.46399,-2.21225 c -1.2436,-0.49617 0.2538,1.41972 0,0 z m 0.77832,-1.28264 c 1.35412,-1.0057 -1.62313,0.45741 0,0 z m 1.58229,-2.34655 c -1.81839,-1.74433 -3.1565,0.31249 0,0 z m -0.23945,-1.36623 c -0.20134,-0.92594 -0.47857,0.45256 0,0 z m -1.82165,-0.42873 c -0.64014,-0.82803 -0.35842,0.82379 0,0 z m 6.09484,7.07715 c 0.6404,-2.85569 2.19928,2.14476 0,0 z m 1.18594,-0.0142 c 0.007,-2.15476 -1.74417,1.06113 0,0 z m 1.54481,-0.15637 c 0.44359,-1.58091 -6.66778,-2.97827 -2.70733,-2.35525 0.55771,0.34325 5.01168,1.60477 2.70733,2.35525 z m -3.58583,-0.12988 c 0.3444,-1.44283 0.62364,0.97771 0,0 z m -2.27874,-5.13679 c 0.22959,-0.80185 0.32202,0.57599 0,0 z m 4.7331,-2.86199 c 0.23097,-0.55535 -0.0359,0.80626 0,0 z" />
        <path
           id="path3510-5"
           style="fill:#588dc5;stroke-width:0.162767"
           d="m 140.84563,249.34595 c -1.62499,-2.01709 1.4241,0.47293 0,0 z m -0.98356,-4.61174 c 0.231,-0.5553 -0.0359,0.80628 0,0 z m 1.61483,0.10941 c -0.006,-2.39094 5.25717,-2.61903 1.40803,-0.65663 -0.43862,0.27588 -0.89981,0.53324 -1.40803,0.65663 z m 3.33674,-0.99114 c 0.92491,-0.78122 1.13404,1.01413 0,0 z m -3.37668,-4.32614 c -1.97841,-1.33843 -8.02951,-0.60956 -7.79588,-2.42373 2.04557,-0.17638 8.21563,-0.0626 7.79588,2.42373 z m -15.38228,-5.291 c -1.81978,-0.83701 1.73174,0.0962 0,0 z m -1.10827,-0.71341 c -0.53956,-0.96868 1.38815,0.97199 0,0 z m 0.01,-0.69858 c -0.85813,-3.74302 2.85466,1.65908 0,0 z m -1.07459,-0.3239 c -0.3258,-5.47849 2.6588,-10.33063 5.08865,-14.96496 -0.0324,-2.82671 5.97367,-4.33078 5.02216,-1.88127 -4.45159,1.82225 -6.29188,6.64074 -8.52942,10.52096 -1.65565,2.29362 2.45603,3.56886 -0.74769,3.97987 -0.63877,0.56057 -1.18221,1.47473 -0.8337,2.3454 z m 1.98632,-1.5671 c 0.36215,-1.01542 0.85216,0.84264 0,0 z m 1.12287,-2.94969 c -0.69822,-0.76487 1.92853,1.29646 0,0 z m 5.64749,-3.69214 c -2.02264,-1.83902 -0.16803,-1.41083 0.50298,0.16181 z" />
        <path
           id="path3508-4"
           style="fill:#bd4350;stroke-width:0.162767"
           d="m 138.42929,255.71444 c -0.52073,-3.92166 2.73581,1.00157 0,0 z m -1.56493,-1.96322 c 0.0313,-1.39237 0.56193,0.94551 0,0 z m -1.75806,-1.11889 c -0.99205,-0.9897 1.73326,1.34294 0,0 z m -3.55822,-2.26908 c -2.13393,-1.01233 4.36497,0.42911 0.41286,0.0692 -0.13762,-0.0231 -0.27524,-0.0461 -0.41286,-0.0692 z m 7.91847,-0.23965 c -1.53488,-2.46555 1.96501,-2.87982 0.84176,-0.44674 l -0.34373,0.24959 z m -10.72621,-0.19368 c 0.64283,-0.61177 0.38228,0.45738 0,0 z m 12.91883,-0.35311 c -3.99273,-1.78323 2.78607,-7.36116 2.11448,-2.12313 -1.67938,1.50541 1.18225,3.8549 -2.11448,2.12313 z m 10.52986,-4.37055 c 1.01474,-0.60057 -0.0492,0.48367 0,0 z m -6.56276,-3.47101 c -2.66877,1.42223 -1.09239,-4.87104 0.14235,-1.54509 1.05588,0.12788 1.28373,2.37974 -0.14235,1.54509 z m 26.97661,-0.10463 c 0.19102,-2.11264 1.73329,0.68976 0,0 z m -30.80045,-0.45418 c 0.20586,-1.7103 0.39062,1.09862 0,0 z m 6.05233,-0.66138 c 0.78903,-1.32195 -0.22432,1.17449 0,0 z m -23.34534,-1.68099 c 0.71948,-1.65869 1.67361,0.76293 0,0 z m 5.89929,-0.80364 c 3.32089,-0.38009 -0.80042,-3.43269 -0.84028,-2.94344 4.00707,-1.95787 8.98817,-0.73673 12.29808,2.04042 -3.35785,2.00831 -7.33188,-2.30864 -10.58626,0.47657 -0.29181,0.13947 -0.58085,0.28469 -0.87154,0.42645 z m -4.39473,-0.5001 c 1.6292,-1.40595 2.35693,0.0457 0,0 z m -1.57285,-2.17134 c -2.78839,-2.4946 2.62621,-1.95618 0.99557,0.0541 -0.3317,0.0711 -0.6639,-0.0351 -0.99557,-0.0541 z m 32.17769,-2.32507 c -0.007,-1.23679 0.93137,1.18207 0,0 z m -5.45816,-3.8315 c -1.31804,-1.23097 2.29231,1.32769 0,0 z m -11.83026,-2.06341 c 1.01476,-0.60057 -0.0492,0.48365 0,0 z m 1.25535,-0.57991 c -1.68626,-1.66588 -6.09284,-0.68196 -5.19895,-3.64189 0.9572,0.0994 2.55235,1.48127 4.29548,0.96754 -3.15466,-4.53267 7.51118,0.56048 2.32841,2.38856 l -0.69477,0.20443 z m 1.17599,-1.74863 c 1.11075,-3.284 -2.93479,1.13073 0,0 z m -8.2454,1.08754 c 1.09817,-1.64201 1.88264,1.36164 0,0 z m 14.16284,-0.71708 c -4.4672,0.49002 1.14451,-1.84728 0,0 z m -2.86554,-0.53501 c 0.2141,-0.55595 0.2973,0.78217 0,0 z m -11.22287,-1.12626 c -0.49273,-1.66618 1.70242,-0.25578 0,0 z m -2.01334,-1.6997 c -4.85072,-0.12697 3.55398,-7.14195 0.51165,-2.23489 -0.12312,0.75053 -0.011,1.58817 -0.51165,2.23489 z m 5.3857,-0.25711 c -0.48764,-1.51211 1.10764,0.20536 0,0 z m -0.38863,-1.10702 c 0.59489,-1.32816 -0.43336,-2.63576 -0.43958,-4.03518 0.99245,0.71798 2.51979,3.76125 0.43958,4.03518 z m -1.77107,-10.54036 c 0.63077,-0.78038 0.34579,0.98376 0,0 z" />
        <path
           id="path3506-7"
           style="fill:#325fa8;stroke-width:0.162767"
           d="m 141.06997,249.87495 c 0.35468,-0.78463 0.62722,1.05185 0,0 z m -1.07732,-5.24413 c 0.32069,-1.22932 -0.0666,1.32755 0,0 z m 1.07125,0.18851 c -0.35873,-2.14163 4.65553,-2.98508 1.14009,-1.16662 -0.36654,0.38494 -0.42568,1.25645 -1.14009,1.16662 z m -0.61786,-2.86573 c -2.09848,-3.07533 -8.5159,0.84405 -8.94409,-3.65401 3.11543,-1.36896 8.71868,1.31416 10.34818,1.09254 -0.26171,0.89648 -0.35001,2.22721 -1.40409,2.56147 z m -13.98445,-6.33234 c -1.11216,-1.98725 -4.26751,-6.10616 0.11383,-5.98094 -4.01682,-1.9136 0.64207,-4.99976 1.09671,-7.7554 0.76241,-2.44039 3.1588,-2.42588 2.35464,0.54225 0.99089,2.42781 -3.37314,5.70699 0.48993,6.30737 -0.91478,0.69516 -3.09898,0.26501 -0.65222,1.67792 3.0153,1.53995 -0.01,3.09077 -1.26033,3.98139 1.4683,1.00364 -1.55762,1.64042 -2.14257,1.22741 z m -0.21034,-2.663 c 0.19475,-1.02668 -2.37612,-1.75353 -0.64419,-0.5823 -1.99733,-0.37476 -0.065,1.16992 0.64419,0.5823 z m 0.24968,-1.96005 c -0.0193,-1.24421 -1.03073,0.79167 0,0 z m 0.74339,-3.02066 c -1.80997,-1.4351 0.48897,0.82214 0,0 z m 0.84834,-2.16168 c -0.91882,-1.11476 -1.0636,1.28955 0,0 z m 6.45703,7.20896 c -0.0524,-1.08628 1.50338,1.41896 0,0 z m -1.86224,-0.44413 c -0.63822,-0.94526 2.22015,0.94002 0,0 z m 0.0402,-7.64593 c -0.9713,-0.90521 0.006,-1.66793 0,0 z m 5.04629,-2.34979 c -0.99971,-2.64167 2.19086,-1.91149 0,0 z m -3.38931,-6.96909 c -0.60696,-0.82271 1.39682,0.86918 0,0 z" />
        <path
           id="path3504-4"
           style="fill:#5a5857;stroke-width:0.162767"
           d="m 129.97988,279.13774 c -8.34584,-0.23261 -14.36146,-10.72666 -9.84069,-17.91744 2.14712,-3.91547 6.14162,-6.53159 10.5181,-6.97389 -1.71257,0.34647 -6.54618,-2.93238 -2.91855,-4.38172 3.83984,-0.45629 7.31416,1.84017 9.5027,4.8881 -2.42275,-2.66431 -8.10854,-7.184 -10.85329,-3.08994 1.29758,1.76196 8.80073,2.68527 3.11378,3.32548 -6.32369,1.24116 -11.8499,7.53584 -10.33355,14.1955 0.97745,6.15378 7.21084,10.77395 13.38972,9.68294 6.37333,-0.74206 11.86814,-7.07465 10.40551,-13.58987 -1.05566,-2.18448 0.74553,-5.28787 2.90646,-3.30934 3.76816,-0.57017 4.63397,-3.66292 7.4077,-5.68332 1.29188,-0.85236 2.76463,-1.47038 0.43835,-1.22844 -0.93634,-0.87001 -2.21471,-2.18177 -2.94611,-3.8436 -5.17424,-0.20927 1.73947,-7.45869 3.57261,-3.11037 0.86179,4.71648 1.36296,-5.43564 -0.59683,-1.54972 -3.12867,-0.10291 -2.28133,-2.71625 0.20365,-2.38197 1.37851,-3.21424 -3.57641,-4.67862 -0.86033,-7.47933 -3.42386,0.25684 -2.14719,3.90262 -3.14116,5.51325 -2.08283,0.92306 -2.53423,5.84366 -6.04224,6.48286 -1.69151,-0.0873 4.57315,-2.5494 1.73452,-4.65794 -0.19989,-2.56851 3.63154,-4.46173 4.2964,-5.9169 3.54614,0.0606 1.92035,-5.84317 -0.19269,-2.33651 4.02376,-3.84827 -1.70886,-6.94596 -4.60779,-9.04672 -1.31096,-1.03827 -6.87687,0.61227 -2.75584,-0.50395 4.40176,-0.76053 7.32222,4.5911 9.78405,6.71336 0.11813,3.34845 2.17524,1.82792 1.50932,-0.60696 -0.16573,-1.68152 -2.98911,-3.26771 -0.34193,-1.55474 1.44034,0.60529 3.5705,2.55787 1.61464,3.90781 1.99903,-1.21735 7.5979,4.24262 3.8943,0.22465 -2.03322,-2.29479 2.00147,2.60994 1.71966,-0.28749 0.65538,3.16489 3.80702,2.11399 4.84191,-0.0732 2.89565,-1.34784 7.94014,-3.70058 9.60201,-1.42096 3.70811,-0.33008 6.79153,2.26473 9.23818,4.75567 3.99197,5.26035 1.78497,13.54403 -3.75458,16.84268 -6.73393,4.64279 -17.01729,0.0974 -18.65342,-7.76415 -0.2271,-2.27488 -1.57579,-0.26332 -1.00148,-3.01992 1.34615,-3.63591 0.13052,-9.52897 -4.71115,-8.9947 -3.81681,1.24057 0.067,4.44684 -1.32217,6.90442 0.60943,-1.65215 -2.66638,-5.92935 -1.33618,-2.07385 1.45102,3.77492 1.79536,7.83783 2.85822,11.67465 0.59105,4.92519 -5.28182,5.49727 -6.61768,9.48364 -2.97922,1.25466 -8.16421,0.56702 -6.39879,5.09109 1.04883,7.51028 -6.10404,13.80851 -13.32534,13.11082 z m 46.6548,-22.97215 c 2.1504,1.12634 6.80692,-4.62511 2.33818,-2.10875 -4.92933,2.63861 -12.51736,0.91453 -14.40021,-4.7373 -1.49858,-2.45531 -0.32972,-5.54295 0.87102,-8.10826 4.25501,-0.9205 5.21458,6.79529 9.76944,6.06627 4.19775,-0.43899 2.14066,-6.8038 -0.97421,-5.57326 2.78206,4.06876 -3.71202,3.59217 -4.44346,0.6695 -2.2631,-1.55235 -7.77193,-7.82041 -8.28863,-1.81672 -0.89354,6.64797 3.12241,14.20862 10.04684,15.52272 1.6661,0.36419 3.40337,0.38713 5.08103,0.0859 z m -1.8356,-9.15711 c -0.90154,-1.29032 1.6166,-0.41135 0,0 z m 1.18453,-3.31869 c 0.22952,-0.80187 0.32208,0.57593 0,0 z m -14.32354,-3.16436 c 0.25039,-1.02633 0.61942,0.59387 0,0 z m 12.61448,13.90701 c -0.24943,-0.70414 -0.54093,0.77503 0,0 z m 1.60904,-0.85642 c 5.5003,-1.23179 9.29684,-7.7842 6.73246,-13.03774 -2.43558,-5.46006 -10.28853,-7.32834 -14.89899,-3.48651 -4.07568,3.23714 3.93657,5.89461 6.43512,3.86379 5.65293,-0.24884 3.43986,9.38015 -1.64809,6.3594 -2.17745,-1.66214 -4.80037,-8.64966 -7.71758,-4.29637 -1.35391,4.56449 2.45069,8.85688 6.37468,10.58935 1.50325,0.58656 3.21953,0.61141 4.7224,0.009 z m -3.3181,-12.32775 c 0.2296,-0.80185 0.32202,0.57599 0,0 z m -16.96037,12.33777 c 1.04029,-1.83444 -2.7208,-3.42613 -0.58002,-0.8482 -0.14315,0.41002 -0.13065,1.42252 0.58002,0.8482 z m -0.97394,-0.7392 c -0.75824,-1.78121 -0.51612,1.39138 0,0 z m 24.98938,-0.32721 c 1.06375,-1.1515 -1.26467,0.68836 -0.60207,0.40595 z m 3.03651,-0.007 c -0.0359,-1.70466 -1.02295,0.72721 -1e-5,0 z m -14.81184,-0.49041 c -0.64632,-2.24102 -3.22556,-0.72964 0,0 z m 15.56255,-0.44852 c 2.03291,-0.21665 2.14415,-5.83591 0.40277,-2.28746 -0.21922,0.34452 -2.1671,3.29544 -0.40277,2.28746 z m -1.71173,-0.82146 c 0.11739,-1.06256 -1.14846,1.4733 0,0 z m -28.36068,-0.33676 c 2.31022,-2.09508 -4.21848,-4.273 -2.10141,-1.04485 -1.46241,1.61198 1.323,1.30422 2.10141,1.04485 z m 12.23112,-0.70245 c -0.88796,-0.91014 0.67758,1.47716 0,0 z m -15.13738,-0.14284 c -0.23058,-1.66408 -0.86061,0.86926 0,0 z m 33.93703,-1.48483 c -0.21411,-0.55596 -0.29731,0.78217 0,0 z M 153.7907,246.533 c -0.0746,-2.16388 -1.86987,0.13679 0,0 z m 31.92166,-0.2686 c -0.47851,-1.03387 -0.46039,0.85093 0,0 z m -1.23474,-1.49427 c 0.83004,-4.27528 -1.70644,1.78361 0,0 z m 1.26557,0.71839 c 0.38724,-2.42506 -1.94552,0.39614 0,0 z m -33.62713,-0.43956 c -2.48388,-0.70542 1.03448,0.85149 0,0 z m 2.0689,0.0618 -0.24683,0.0316 z m -7.16695,-0.56561 c 2.10678,-1.32599 0.43006,-4.46619 -0.58815,-1.47833 -0.0461,0.29667 0.0261,2.23746 0.58815,1.47833 z m 26.91938,0.35459 c 0.60739,-1.54724 -1.22062,0.66494 0,0 z m -12.97997,-0.75134 c -0.48483,-0.0786 0.60618,1.06055 0,0 z m 25.00786,0.24895 c 0.0549,-1.3678 -1.04269,0.48579 0,0 z m -12.35138,-0.94571 c -1.8797,-2.144 -2.44754,-0.202 0,0 z m 12.36851,-0.0681 c -0.0503,-1.29592 -1.05127,0.53629 0,0 z m -0.14696,-0.83941 c 0.1469,-1.12999 -0.88193,0.36348 0,0 z m -1.73898,-1.09853 c 0.84955,-4.54628 -4.9593,-7.18298 -8.61427,-7.91948 -3.52707,-0.38886 -7.32723,0.69119 -9.78922,3.32827 1.16868,-1.76215 1.22922,-3.19086 -0.77291,-1.24758 -1.00017,3.16297 4.33736,2.45861 4.85765,0.12943 4.15641,-2.03945 10.31595,-0.64808 12.38298,3.72976 0.48223,0.78179 1.02109,1.65286 1.93577,1.9796 z m -33.17906,0.29183 c -0.54491,-1.16911 -0.22056,0.9992 0,0 z m 34.66948,-0.40693 c -0.50445,-1.55916 -0.35332,1.12935 0,0 z m -35.77901,-0.44218 c -0.75538,-0.35428 0.76133,1.09347 0,0 z m 35.45347,-0.61581 c -0.35814,-0.73056 -0.35814,0.73057 0,0 z M 149.45001,239.327 c -0.89376,-0.39756 0.47022,1.74756 0,0 z m 3.09335,0.3779 c 0.72516,-1.88226 -1.31762,0.86472 0,0 z m 2.05328,-4.27133 c -0.73957,-0.0498 0.66294,0.90226 0,0 z m 13.56471,-1.60173 c -1.29699,-1.14484 0.0147,1.4437 0,0 z m -14.15462,0.007 -0.22836,-0.0535 z m 16.11725,-0.24022 c -0.35816,-0.73056 -0.35816,0.73057 0,0 z m -1.13938,-0.34294 c -0.6042,-0.56331 -0.27055,0.81552 0,0 z m 2.02129,0.24415 c 0.62997,-1.23755 -1.15349,0.70637 0,0 z m -16.43986,-0.40458 c -1.55108,-2.02585 -0.38895,1.14851 0,0 z m 15.23241,-0.1477 c -0.47828,-0.82261 -0.65562,0.851 0,0 z m -40.93603,43.8817 c -2.15366,0.0491 -6.43398,-3.78163 -5.16544,-4.01575 1.24616,1.23682 4.75177,2.60892 1.61259,0.37938 -3.71346,-4.00492 -2.74166,-11.7792 2.77947,-13.64762 3.11619,-1.5056 8.54045,-0.18624 8.21575,4.02187 3.3814,-1.01146 -1.11389,4.32069 1.91949,2.49584 2.1677,3.2987 -1.17759,7.8676 -4.7326,8.38132 -0.49197,1.08326 4.99917,-0.29353 1.32416,1.58935 -1.90155,1.0797 -3.88449,1.1603 -5.95342,0.79561 z m 1.4406,-1.43726 c -1.07032,-2.01299 -2.20762,1.44118 0,0 z m 0.84718,-0.79058 c 3.72841,0.14152 7.51412,-3.23989 7.49716,-7.01737 -1.34849,-3.06524 -4.11756,2.94938 -6.12368,3.68001 -4.34428,2.47034 -8.54447,-4.27385 -4.70545,-7.40695 1.58162,-2.07438 3.87126,-1.39999 5.08038,0.0575 2.24324,-0.27498 3.70625,-3.16905 1.05127,-3.53857 -2.68976,-2.92967 -7.72076,-0.43278 -9.54779,2.42042 -2.78981,4.39378 0.0384,11.21966 5.40876,11.70695 0.44339,0.0644 0.8914,0.0956 1.33935,0.0979 z m 6.17613,-2.42688 c 0.1314,-1.34271 -0.84201,1.13134 0,0 z m -3.57296,-1.75518 c 0.93509,-1.23486 1.83132,-6.05883 -0.98443,-4.11898 2.0024,-0.78975 2.37621,-3.82333 0.41087,-1.12675 -1.22054,1.46901 -4.80014,4.95079 -0.50302,4.64893 0.40117,0.0709 0.89068,0.17239 1.07658,0.5968 z m -0.0893,-3.44378 c -0.0665,-2.27215 0.5543,1.15858 0,0 z m -6.0224,1.44722 c 0.11051,-2.1837 -1.69463,-0.23596 0,0 z m 1.46491,-0.44911 c 0.19208,-1.35829 -1.00889,-0.31082 0,0 z m 0.5871,-0.28858 c 0.38498,-2.29518 -0.78592,0.70069 0,0 z m 6.17705,-0.43429 c 1.93803,-1.43729 1.20037,-4.12183 -0.43156,-1.51224 -0.16756,0.36308 -0.57762,2.74387 0.43156,1.51224 z m -7.74076,-0.0503 c -0.47524,-0.6326 -0.10414,0.89888 0,0 z m 2.04129,-0.40814 c 0.1681,-0.98582 -0.84576,1.0548 0,0 z m 0.80714,-1.61357 c -1.00373,-2.99769 -2.51394,1.66671 0,0 z m 1.12766,-0.69504 c 2.61733,-1.09102 -3.27,-0.10917 0,0 z m -9.95565,6.51464 c -1.41489,-2.17663 0.33909,-2.52301 0,0 z m 0.12488,-4.46136 c -0.0771,-1.23166 0.84319,-1.15449 0,0 z m 15.26804,-3.55346 c 0.58227,-1.74397 1.77279,0.96078 0,0 z m -0.0135,-1.03227 c -0.53143,-1.57689 1.90927,-0.29716 0,0 z m 6.63746,-1.97679 c -1.98621,0.57849 -6.98114,-2.6665 -5.63186,-3.6294 2.48335,-0.88605 -1.01179,-7.88508 4.35842,-6.73155 3.62138,-1.3653 2.90021,5.43214 0.58342,3.46542 1.02435,-3.91516 -5.24174,-2.21372 -2.20996,0.57152 -3.45337,2.01459 5.20446,3.03684 0.8367,3.56945 -2.56121,0.41394 0.66884,-0.015 -0.84167,1.30863 1.01403,0.4602 4.10192,-2.45407 3.96472,0.16516 1.49717,-2.1763 6.35104,1.44284 1.86903,1.3089 -0.98184,0.0432 -1.94295,-0.10389 -2.9288,-0.0281 z m -0.81852,-1.30969 c -0.14951,-0.71725 -0.5875,1.03929 0,0 z m -3.70887,-1.40627 c -1.27761,-2.46014 -2.50041,0.42342 0,0 z m 1.59289,-0.54694 c -0.76458,-1.11236 -0.36513,0.80008 0,0 z m 2.27875,-5.85963 c -0.67343,-0.96042 -0.28369,0.7926 0,0 z m 1.4649,-0.48832 c -0.39147,-0.72776 -0.67827,0.85123 0,0 z m 1.38353,7.06983 c -0.44191,-2.73738 4.86916,-2.40124 1.47957,-0.0688 -0.41858,0.32911 -1.02951,0.32891 -1.47957,0.0688 z m -10.57989,-1.86126 c 0.35818,-0.73056 0.35813,0.73055 0,0 z m 8.03747,-0.56189 c 0.0836,-2.45759 1.41219,1.04184 0,0 z m 3.12628,-1.42232 c 1.29072,-4.50664 1.30331,3.62344 0,0 z m 1.04382,0.35654 c -0.47827,-0.82261 -0.65567,0.851 0,0 z m -1.8805,-1.18757 c -0.98795,-2.06001 1.53581,-4.03889 0.77908,-0.8549 0.0415,0.41415 -0.26677,1.06458 -0.77908,0.8549 z m 10.6518,-3.5322 c -3.23311,-4.26954 4.53374,0.29263 0,0 z m 1.15312,-0.15506 c -1.03642,-3.04312 -2.58108,1.45116 0,0 z m -17.24896,0.1671 c 0.002,-3.95996 -2.45337,-7.97317 -6.8407,-6.58566 -2.75362,-0.15904 -9.25049,-1.72052 -7.99856,-3.77862 1.4229,0.47823 8.36403,-2.2505 3.8138,-0.4403 -4.3792,0.37967 -1.99126,3.77262 1.07185,3.72679 3.29984,0.63393 7.63076,-0.78431 9.90117,2.42641 0.99121,1.39891 -0.53789,3.10518 0.0525,4.65138 z m -0.53988,-2.15898 c -0.48485,-0.0786 0.6062,1.06051 0,0 z m 7.92173,1.23738 c 0.11199,-2.08693 1.32945,1.34202 0,0 z m 0.86082,-2.25274 c -0.11948,-2.19155 1.65597,-3.97048 0.92331,-0.75316 0.0313,0.4271 -0.40403,1.41832 -0.92331,0.75316 z m -8.47569,-3.87064 c 0.55321,-1.83519 2.66771,-3.36653 1.07241,-0.58314 -0.15858,0.35813 -0.63434,0.98689 -1.07241,0.58314 z m -8.06812,-0.29205 c 0.68497,-0.61893 0.88097,0.84175 0,0 z m 11.17374,-0.0856 c 1.04937,-0.59891 1.10676,0.86386 0,0 z m -4.17474,-0.56541 c 0.8029,-0.86019 1.12948,1.17222 0,0 z m -1.0173,-0.27056 c 0.64283,-0.61177 0.38228,0.45738 0,0 z m -2.36012,-0.17354 c 1.38264,-0.13624 1.18411,0.17751 0,0 z m -1.87487,-0.14218 c -2.26825,0.24875 -3.50672,-1.34815 -0.56267,-0.29816 0.35086,0.0434 2.47987,0.43136 0.56267,0.29816 z m 16.42457,-0.015 c -0.34955,-0.79793 0.84752,0.18358 0,0 z m 0.62836,-0.53814 c 0.57201,-0.9626 0.18191,0.65841 0,0 z m -26.72373,-1.50166 c -1.3329,-1.07325 0.38018,-3.9847 -0.10954,-1.11211 -0.19227,-0.20091 0.73769,1.60876 0.10954,1.11211 z m 20.13165,-0.12803 c -2.64927,-0.84207 -1.92194,-2.32373 0,0 z m -2.50662,-0.25841 c -0.46263,-1.24287 0.69206,0.67728 0,0 z m -16.86271,-0.53614 c 1.27807,-0.88616 0.60674,-4.64885 2.21438,-1.7028 -0.52943,0.80666 -1.96983,0.65007 -2.21438,1.7028 z M 137.54,237.23115 c 1.01473,-0.60053 -0.0492,0.48363 0,0 z m -1.14955,-0.15938 c 0.64283,-0.61177 0.38228,0.45737 0,0 z m -7.61976,-1.82601 c 0.88074,-1.51155 4.89068,-1.25384 1.36824,-0.51524 -0.39156,0.14633 -0.85102,0.84557 -1.36824,0.51524 z m 52.66566,0.14336 c 0.21413,-0.55593 0.29729,0.78217 0,0 z m -46.49149,-1.35775 c 0.45317,-1.88386 2.63462,-5.92111 2.76457,-6.17405 -1.67337,1.69189 -0.84995,4.6422 -2.76457,6.17405 z m 20.3436,-2.64503 c -2.92755,-1.04383 -1.60666,-3.12585 0.39595,-0.88409 0.57216,0.56592 1.19309,1.98974 -0.39595,0.88409 z m 0.32094,-0.53717 c -1.29281,-1.9241 -1.04363,0.6207 0.10635,0.1591 z m -4.65017,-1.68591 c -0.77668,-2.76148 -4.97867,-3.49109 -7.08507,-3.85657 1.95698,-0.60546 7.4772,0.0206 7.29065,3.19659 z M 133.2202,225.8354 c -1.60265,-1.9544 1.21934,0.77038 0,0 z m 2.07153,-0.05 c 1.46629,-0.84555 0.58809,0.47857 0,0 z m 4.06919,-1.62767 c 0.35812,-0.73054 0.35817,0.73053 0,0 z m -7.84851,-0.49681 c -1.71718,-0.0211 -1.79687,-5.3905 -1.14395,-2.04199 1.13758,-0.78031 1.55592,2.42256 1.14395,2.04199 z m 5.79777,-1.96179 c 0.3653,-0.63733 0.46395,-3.79396 0.98531,-1.44782 1.13752,-1.80052 2.81337,-5.07297 -0.74434,-4.10036 -0.74053,-0.62888 -3.38752,-2.36373 -2.01638,-0.2419 -2.29417,-2.06336 0.19903,-3.03659 1.02615,-0.47885 4.31172,2.55479 4.3114,-4.92444 5.89579,-6.35206 2.98781,0.74968 4.0997,4.55942 0.60484,5.54142 -2.20656,1.90833 -4.10556,5.54286 -5.75137,7.07957 z m 4.49225,-5.51701 c -0.32203,-0.57599 -0.22957,0.80188 0,0 z m -0.34664,-1.15067 c 3.50969,-0.20737 1.78401,-5.75702 -0.60967,-2.6207 -0.44121,0.78309 -0.83511,2.65049 0.60967,2.6207 z m 4.15653,-2.47091 c -0.65431,-2.43947 -1.6179,0.93254 0,0 z m -1.20561,-0.25487 c -0.6678,-1.25103 -1.84393,-0.24243 0,0 z m -0.32553,-0.90912 c -0.6998,-1.22136 -1.98994,-0.27891 0,0 z m -5.75113,10.86222 c -0.6681,-1.13394 0.57783,-1.60001 0,0 z m -0.0271,-6.56495 c 0.11371,-1.81827 1.4284,1.07907 0,0 z m 0.56969,-0.0718 c -0.0851,-0.7055 -0.51676,0.38784 0,0 z m -2.42013,-1.98242 c -3.3295,-2.01274 2.21884,-1.81419 0,0 z m 0.3554,-0.61163 c 0.0893,-1.64065 -1.00208,0.4284 0,0 z" />
        <path
           id="path3502-4"
           style="fill:#282626;stroke-width:0.162767"
           d="m 128.88761,278.80936 c -8.1135,-0.96112 -13.13578,-11.87981 -7.74209,-18.34627 2.20656,-4.09919 7.15464,-4.82327 10.70149,-6.29842 -1.63052,-0.69652 -7.93821,-1.81678 -4.13513,-3.80773 4.0657,-1.18556 7.17135,2.53402 10.09391,4.72725 1.85219,0.55629 1.58195,1.75238 -0.3048,0.99943 2.27585,3.56163 7.75482,5.17603 11.54315,3.27884 -0.57577,-2.14503 -4.31737,-0.13555 -4.70558,-1.79083 -1.20729,0.56841 -4.43403,1.86448 -2.8467,-0.2915 1.486,-0.29385 3.29632,-1.06703 0.67539,-0.90444 -3.62926,-1.13298 -0.34158,-9.50281 1.35452,-3.86558 1.46642,3.77792 2.8069,-2.70243 0.53834,-3.6964 3.45577,-0.9842 4.13508,-6.23555 6.56316,-6.83502 -1.6666,-1.8627 0.79972,-5.73327 2.34678,-4.64363 -0.74735,1.07609 -1.30734,3.02404 0.45628,1.87718 0.48549,2.85781 1.2499,5.48381 -1.90754,6.20674 1.08161,3.17035 4.43786,-1.82587 3.64447,1.62086 0.32571,1.9066 -0.81988,3.2483 -1.01246,0.544 -2.56403,-3.62836 -8.12254,3.51761 -2.9466,4.12718 0.41994,1.51182 2.1563,3.26999 2.37723,3.50162 3.53868,-0.42017 -2.6627,1.50592 -2.72095,3.60868 -1.4619,4.27054 -6.6385,1.31721 -8.57936,4.06113 1.63073,3.60379 0.78456,8.16919 -1.46887,11.32783 -2.76758,3.50616 -7.52675,5.30102 -11.92464,4.59908 z m 3.6803,-2.00741 c 1.95877,0.83403 5.47844,-3.55084 1.60118,-1.84509 -1.35333,-1.62321 4.86147,-1.30379 4.18866,-4.35123 1.60325,-2.18308 -0.27827,-6.08175 -1.51172,-4.53719 2.15522,-2.19682 -1.67507,-5.45274 -3.66172,-6.71933 -4.93292,-1.89667 -10.54074,2.7734 -10.12854,7.94295 -0.72089,2.80844 2.76217,6.15105 3.30329,7.14959 -1.33852,-1.34911 -4.72497,-2.4861 -1.95465,0.001 2.17176,1.95507 5.26443,3.0278 8.1635,2.3586 z m -3.48744,-1.29519 c -0.23471,-2.20667 2.16207,1.27196 0,0 z m 7.74631,-3.18809 c -0.0602,-1.50998 1.0885,0.21459 0,0 z m -3.81379,-2.00543 c -2.96788,-0.21226 -2.4648,-2.51563 -1.058,-3.74132 -0.22729,-2.06026 4.87024,-3.31881 1.42787,-1.01704 -0.99616,1.07657 3.17346,-0.12995 1.26187,2.17243 -0.28943,0.81954 -0.30692,2.91616 -1.63174,2.58593 z m 0.9766,-3.43869 c -0.47884,-0.96747 -0.18521,1.37554 0,0 z m -5.26282,1.12184 c -0.89242,-1.46016 1.18159,0.27686 0,0 z m 0.92623,-3.17238 c 1.22963,-1.59077 0.41324,1.95502 0,0 z m 1.62686,-0.39526 c 1.52506,-2.06114 1.83645,1.62908 0,0 z m -9.07178,5.77461 c -0.54085,-2.37788 -0.7649,-0.35883 -0.0304,0.58047 z m 0.4604,-4.45858 c -0.0699,-1.73021 -0.40552,2.43971 0,0 z m 15.93172,-2.97996 c -1.06097,-1.62571 -1.17137,1.827 0,0 z m -0.27823,-1.93828 c -2.11582,0.0962 -0.032,2.36737 0,0 z m 9.2454,-3.23756 c 2.96524,-2.45218 -0.72595,-3.02981 -1.34995,-0.5933 0.15998,0.56 0.85941,0.67744 1.34995,0.5933 z m -11.4618,-2.01717 c -0.35818,-0.73056 -0.35813,0.73055 0,0 z m 8.29541,-0.64036 c 0.0956,-1.53481 -0.99042,1.01998 0,0 z m 3.88394,-0.95544 c 0.34599,-4.39578 -2.77609,1.86446 0,0 z m -1.45944,-1.49678 c 0.99852,-1.76744 -0.83704,-4.37865 -0.7676,-1.14732 -0.15656,0.52501 -0.10107,2.19797 0.7676,1.14732 z m 1.97423,-3.98574 c 0.42468,-2.04087 -2.11927,0.52534 0,0 z m 0.97833,-3.16151 c 1.0196,-2.51108 -1.41456,-2.11901 -0.82207,0.28283 0.10095,1.13275 0.89671,0.32427 0.82207,-0.28283 z m 1.13937,-4.90716 c -0.66142,-0.79022 -0.30487,0.99802 0,0 z m 0.56968,-0.31592 c -0.14951,-0.71726 -0.5875,1.03935 0,0 z m 20.18318,16.14779 c -5.88747,-1.4069 -10.21496,-7.12817 -10.20398,-13.14055 -1.2187,-3.30666 1.64174,-8.25361 4.33385,-3.73265 3.07983,1.42507 5.78359,5.80631 9.01231,5.4134 0.78405,-1.35739 -2.25497,-4.49652 1.11051,-3.19362 4.48874,3.15564 -2.40332,9.00473 -4.79985,3.82488 -1.05515,-2.35893 -6.20795,-7.05976 -6.68278,-2.06515 0.95472,2.5585 -2.47268,3.65483 -0.25116,5.36543 1.71106,4.19069 5.94678,7.25197 10.55811,6.57243 1.93355,0.005 5.87071,-2.68103 6.37038,-1.5 -2.08451,2.87598 -6.31836,2.47591 -9.44739,2.45583 z m 3.56607,-9.82384 c -1.01189,-0.40497 0.20532,1.18172 0,0 z m 0.99142,-2.74306 c -0.2141,-0.55595 -0.29732,0.78213 0,0 z m -14.09142,-3.15948 c -0.0189,-1.22317 -0.64051,0.93682 0,0 z m 11.73129,13.90213 c 0.34926,-0.76776 0.59509,0.7273 0,0 z m 4.72026,-1.44139 c 0.93674,-1.22182 2.06785,-0.52296 0,0 z m 3.52663,-0.2948 c -1.02856,-1.67629 1.3447,0.13013 0,0 z M 166.675,251.46923 c -1.42051,-2.4413 2.24024,2.01905 0,0 z m 16.08141,0.33517 c -0.47539,-1.73818 3.86607,-5.93394 2.08617,-2.03224 -0.42956,0.8657 -0.99876,1.92037 -2.08617,2.03224 z m -1.52362,-0.99354 c 0.62299,-1.53287 0.59078,0.69675 0,0 z m -15.82907,-0.93591 c -0.68621,-1.52345 0.85596,0.91857 0,0 z m -8.58598,-0.83256 c -1.69901,-1.95802 2.50692,0.63682 0.11248,0.032 z m 27.30424,-0.95788 c 0.22957,-0.80188 0.32206,0.57597 0,0 z m -44.09714,-0.90879 c 0.23102,-0.55529 -0.0359,0.80627 0,0 z m 45.23651,-0.9766 c 0.4974,-0.70829 0.29527,0.91652 0,0 z m -1.21256,-1.2341 c -1.05834,-2.2205 1.81244,-1.93571 0.27378,0.16165 0.0245,0.46445 -0.86676,0.97936 -0.27378,-0.16165 z m 1.05152,0.43589 c -0.36479,-1.71718 1.40532,0.87471 0,0 z m -38.57762,-0.43813 c -1.56154,-1.92571 3.07895,-5.10073 1.12777,-1.45143 -0.24143,0.56405 -0.55372,1.16142 -1.12777,1.45143 z m -6.08373,-0.22144 c -2.30846,-4.01866 -7.51622,-1.27376 -11.03595,-2.72323 -4.50758,-0.54093 -0.36384,-5.78221 1.70282,-2.90973 0.64057,2.94811 6.27217,0.81369 8.9042,2.44888 2.65676,1.87533 2.22155,-7.41224 4.48341,-2.6709 -0.46379,2.40719 -2.06691,4.48001 -4.05448,5.85498 z m -7.18183,-2.842 c -0.90878,-0.86297 -1.12293,0.88797 0,0 z m 27.60196,2.34657 c 0.23099,-0.55532 -0.0359,0.80627 0,0 z m 24.56503,-0.0678 c 0.53436,-0.85873 0.30475,0.99863 0,0 z m -12.79352,-0.94946 c -2.37904,-1.78295 2.6486,1.05894 0,0 z m 12.84969,0.0472 c 0.28148,-1.42347 0.46569,1.11691 0,0 z m -0.12547,-0.83403 c 0.0369,-1.18782 0.72596,0.8542 0,0 z m -1.71081,-0.59668 c -1.50474,-4.17451 -5.49998,-7.31865 -10.01487,-7.17216 -2.95201,-0.38974 -7.52069,5.15157 -9.11043,1.70627 0.42827,-1.80567 4.14632,-2.46425 1.58838,-0.41345 2.98395,-1.45174 6.62927,-3.47116 10.41266,-2.28379 2.83594,0.7995 9.88353,4.60397 7.12426,8.16313 z m 1.61734,-0.51548 c -0.16977,-1.00776 0.85699,1.07303 0,0 z m -0.32553,-1.05799 c 0.35813,-0.73054 0.35813,0.73055 0,0 z m -59.4038,-0.68175 c -1.31257,-1.89962 1.17631,1.03643 0,0 z m -1.05949,-1.39353 c -2.43456,-1.9586 3.49176,-3.41678 0.87362,-0.69813 0.09,0.2954 -0.52202,1.29253 -0.87362,0.69813 z m 34.58326,-2.1854 c -0.86963,-1.15825 -5.83006,-1.53623 -2.6375,-3.13353 0.97376,0.37803 6.31494,5.41761 2.6375,3.13353 z m -4.62537,-0.27496 c -0.52997,-1.11708 0.66552,0.29724 0,0 z m -2.0099,-0.38438 c 0.70028,-4.32371 -4.49183,-5.96073 -6.72462,-8.73283 -1.78253,-0.49183 -4.55282,-0.63099 -1.04657,-1.27629 3.66653,0.33187 6.20055,3.03131 8.41995,5.76839 -0.1869,0.86153 1.80425,5.32538 -0.64876,4.24073 z m -23.15468,-0.86752 c -0.59313,-1.32311 4.08916,-3.68619 0.11862,-4.51883 -2.64313,-1.26195 3.80769,-0.78204 -0.15132,-1.84871 -2.17988,-1.12157 1.59634,-1.52058 0.50661,-3.4488 0.57613,-4.68647 2.81663,2.79891 5.6661,1.14354 1.90689,-0.40553 6.9472,0.17791 2.83643,1.77685 -2.96828,1.33543 -1.51477,6.46376 -5.4182,6.3456 -1.19215,0.118 -2.43301,0.0764 -3.55827,0.55035 z m 4.39822,-1.86764 c -0.91268,-0.84822 -1.64722,0.38092 0,0 z m 33.95329,1.53511 c -0.30566,-1.43043 1.22458,0.72068 0,0 z m -13.8582,-0.23869 c -0.16816,-0.98593 0.84577,1.05481 0,0 z m 14.73715,-0.56396 c 0.45565,-1.04556 0.67852,0.81494 0,0 z m 0.81384,-0.40182 c 0.47827,-0.82258 0.65563,0.851 0,0 z m -13.83524,-1.87182 c -1.81821,-0.75601 -0.98959,-1.37207 0,0 z m -28.0387,-5.078 c -0.22629,-1.12248 1.09872,0.65004 0,0 z m 10.62258,-6.33129 c 0.28233,-1.86303 -5.36525,-6.64329 -1.43686,-3.82744 1.71995,0.1748 4.91317,-0.128 2.74193,2.38146 -0.14178,0.55224 -0.42748,1.80248 -1.30507,1.44598 z m 3.4995,-3.48394 c 0.3145,-0.78651 0.19956,0.54018 0,0 z m -3.0112,-0.66067 c 0.44733,-0.38723 0.11223,0.71991 0,0 z m 2.17592,-2.00654 c -0.25831,-4.52144 6.31353,0.88585 0.73706,1.53318 -0.78167,0.0394 -0.91234,-0.97704 -0.73706,-1.53318 z m -4.34616,-0.37111 c -0.95382,-1.49917 1.09971,-0.17702 0,0 z m 8.35541,-0.8681 c 1.0295,-1.27644 0.40252,1.73152 0,0 z m -1.5056,-1.10002 c -1.46935,-1.23746 2.27455,1.11648 0,0 z" />
      </g>
    </g>
  </g>
</svg>
